<mxfile host="app.diagrams.net" modified="2024-05-30T19:42:50.742Z" agent="Mozilla/5.0 (Windows NT 10.0; Win64; x64) AppleWebKit/537.36 (KHTML, like Gecko) Chrome/125.0.0.0 Safari/537.36" etag="fp5yb0jC662t9R549EJ3" version="24.4.10" type="github">
  <diagram name="Page-1" id="JtiFb431wIfT71hAsj7z">
    <mxGraphModel dx="1050" dy="1657" grid="1" gridSize="10" guides="1" tooltips="1" connect="1" arrows="1" fold="1" page="1" pageScale="1" pageWidth="850" pageHeight="1100" math="0" shadow="0">
      <root>
        <mxCell id="0" />
        <mxCell id="1" parent="0" />
        <mxCell id="rL-jXe1uzckOBX0wjLuj-3" value="" style="strokeWidth=1;shadow=0;dashed=0;align=center;html=1;shape=mxgraph.mockup.containers.browserWindow;rSize=0;strokeColor=#666666;strokeColor2=#008cff;strokeColor3=#c4c4c4;mainText=,;recursiveResize=0;" vertex="1" parent="1">
          <mxGeometry x="40" y="-80" width="600" height="420" as="geometry" />
        </mxCell>
        <mxCell id="rL-jXe1uzckOBX0wjLuj-4" value="Page 1" style="strokeWidth=1;shadow=0;dashed=0;align=center;html=1;shape=mxgraph.mockup.containers.anchor;fontSize=17;fontColor=#666666;align=left;whiteSpace=wrap;" vertex="1" parent="rL-jXe1uzckOBX0wjLuj-3">
          <mxGeometry x="60" y="12" width="110" height="26" as="geometry" />
        </mxCell>
        <mxCell id="rL-jXe1uzckOBX0wjLuj-5" value="https://www.begli.org" style="strokeWidth=1;shadow=0;dashed=0;align=center;html=1;shape=mxgraph.mockup.containers.anchor;rSize=0;fontSize=17;fontColor=#666666;align=left;" vertex="1" parent="rL-jXe1uzckOBX0wjLuj-3">
          <mxGeometry x="130" y="60" width="250" height="26" as="geometry" />
        </mxCell>
        <mxCell id="rL-jXe1uzckOBX0wjLuj-18" value="" style="strokeWidth=1;shadow=0;dashed=0;align=center;html=1;shape=mxgraph.mockup.forms.rrect;rSize=0;strokeColor=#999999;fillColor=#ffffff;container=0;" vertex="1" parent="rL-jXe1uzckOBX0wjLuj-3">
          <mxGeometry x="200" y="110" width="200" height="300" as="geometry" />
        </mxCell>
        <mxCell id="rL-jXe1uzckOBX0wjLuj-19" value="Sign In" style="strokeWidth=1;shadow=0;dashed=0;align=center;html=1;shape=mxgraph.mockup.forms.anchor;fontSize=12;fontColor=#666666;align=left;resizeWidth=1;spacingLeft=0;" vertex="1" parent="rL-jXe1uzckOBX0wjLuj-3">
          <mxGeometry x="270" y="150" width="100" height="20" as="geometry">
            <mxPoint x="10" y="10" as="offset" />
          </mxGeometry>
        </mxCell>
        <mxCell id="rL-jXe1uzckOBX0wjLuj-25" value="" style="strokeWidth=1;shadow=0;dashed=0;align=center;html=1;shape=mxgraph.mockup.forms.rrect;rSize=5;strokeColor=none;fontColor=#ffffff;fillColor=#66bbff;fontSize=16;fontStyle=1;" vertex="1" parent="rL-jXe1uzckOBX0wjLuj-3">
          <mxGeometry x="260" y="280" width="80" height="30" as="geometry">
            <mxPoint x="210" y="-170" as="offset" />
          </mxGeometry>
        </mxCell>
        <mxCell id="rL-jXe1uzckOBX0wjLuj-37" value="" style="group" vertex="1" connectable="0" parent="rL-jXe1uzckOBX0wjLuj-3">
          <mxGeometry x="235" y="190" width="150" height="190" as="geometry" />
        </mxCell>
        <mxCell id="rL-jXe1uzckOBX0wjLuj-24" value="" style="strokeWidth=1;shadow=0;dashed=0;align=center;html=1;shape=mxgraph.mockup.forms.rrect;rSize=0;strokeColor=#999999;fontColor=#666666;align=left;spacingLeft=5;resizeWidth=1;" vertex="1" parent="rL-jXe1uzckOBX0wjLuj-37">
          <mxGeometry x="-10" y="50" width="150" height="25" as="geometry">
            <mxPoint x="10" y="115" as="offset" />
          </mxGeometry>
        </mxCell>
        <mxCell id="rL-jXe1uzckOBX0wjLuj-34" value="" style="group" vertex="1" connectable="0" parent="rL-jXe1uzckOBX0wjLuj-37">
          <mxGeometry width="150" height="90" as="geometry" />
        </mxCell>
        <mxCell id="rL-jXe1uzckOBX0wjLuj-22" value="" style="strokeWidth=1;shadow=0;dashed=0;align=center;html=1;shape=mxgraph.mockup.forms.rrect;rSize=0;strokeColor=#999999;fontColor=#666666;align=left;spacingLeft=5;resizeWidth=1;" vertex="1" parent="rL-jXe1uzckOBX0wjLuj-34">
          <mxGeometry x="-10" y="2.5" width="150" height="25" as="geometry">
            <mxPoint x="10" y="60" as="offset" />
          </mxGeometry>
        </mxCell>
        <mxCell id="rL-jXe1uzckOBX0wjLuj-32" value="&lt;font color=&quot;#c9c9c9&quot;&gt;Username&lt;/font&gt;" style="text;html=1;align=center;verticalAlign=middle;resizable=0;points=[];autosize=1;strokeColor=none;fillColor=none;" vertex="1" parent="rL-jXe1uzckOBX0wjLuj-34">
          <mxGeometry x="20" width="80" height="30" as="geometry" />
        </mxCell>
        <mxCell id="rL-jXe1uzckOBX0wjLuj-36" value="&lt;span style=&quot;color: rgb(201, 201, 201); font-family: Helvetica; font-size: 12px; font-style: normal; font-variant-ligatures: normal; font-variant-caps: normal; font-weight: 400; letter-spacing: normal; orphans: 2; text-align: center; text-indent: 0px; text-transform: none; widows: 2; word-spacing: 0px; -webkit-text-stroke-width: 0px; white-space: nowrap; background-color: rgb(251, 251, 251); text-decoration-thickness: initial; text-decoration-style: initial; text-decoration-color: initial; display: inline !important; float: none;&quot;&gt;Password&lt;/span&gt;" style="text;whiteSpace=wrap;html=1;" vertex="1" parent="rL-jXe1uzckOBX0wjLuj-34">
          <mxGeometry x="30" y="50" width="90" height="40" as="geometry" />
        </mxCell>
        <mxCell id="rL-jXe1uzckOBX0wjLuj-38" value="&lt;font size=&quot;1&quot; color=&quot;#ffffff&quot; style=&quot;&quot;&gt;&lt;b style=&quot;font-size: 16px;&quot;&gt;Sign In&lt;/b&gt;&lt;/font&gt;" style="text;html=1;align=center;verticalAlign=middle;resizable=0;points=[];autosize=1;strokeColor=none;fillColor=none;" vertex="1" parent="rL-jXe1uzckOBX0wjLuj-3">
          <mxGeometry x="260" y="280" width="80" height="30" as="geometry" />
        </mxCell>
        <mxCell id="rL-jXe1uzckOBX0wjLuj-20" value="" style="shape=line;strokeColor=#ddeeff;strokeWidth=2;html=1;resizeWidth=1;" vertex="1" parent="1">
          <mxGeometry x="740" y="80" width="180" height="10" as="geometry">
            <mxPoint x="10" y="30" as="offset" />
          </mxGeometry>
        </mxCell>
        <mxCell id="rL-jXe1uzckOBX0wjLuj-31" value="" style="edgeStyle=orthogonalEdgeStyle;rounded=0;orthogonalLoop=1;jettySize=auto;html=1;" edge="1" parent="1" target="rL-jXe1uzckOBX0wjLuj-23">
          <mxGeometry relative="1" as="geometry">
            <mxPoint x="790" y="130" as="sourcePoint" />
          </mxGeometry>
        </mxCell>
        <mxCell id="rL-jXe1uzckOBX0wjLuj-23" value="Password:" style="strokeWidth=1;shadow=0;dashed=0;align=center;html=1;shape=mxgraph.mockup.forms.anchor;fontSize=12;fontColor=#666666;align=left;resizeWidth=1;spacingLeft=0;" vertex="1" parent="1">
          <mxGeometry x="680" y="195" width="100" height="20" as="geometry">
            <mxPoint x="10" y="95" as="offset" />
          </mxGeometry>
        </mxCell>
        <mxCell id="rL-jXe1uzckOBX0wjLuj-26" value="Forgot Password?" style="strokeWidth=1;shadow=0;dashed=0;align=center;html=1;shape=mxgraph.mockup.forms.anchor;fontSize=12;fontColor=#9999ff;align=left;spacingLeft=0;fontStyle=4;resizeWidth=1;" vertex="1" parent="1">
          <mxGeometry x="755" y="380" width="150" height="20" as="geometry">
            <mxPoint x="10" y="-110" as="offset" />
          </mxGeometry>
        </mxCell>
        <mxCell id="rL-jXe1uzckOBX0wjLuj-27" value="" style="shape=line;strokeColor=#ddeeff;strokeWidth=2;html=1;resizeWidth=1;" vertex="1" parent="1">
          <mxGeometry x="680" y="310" width="180" height="10" as="geometry">
            <mxPoint x="10" y="-90" as="offset" />
          </mxGeometry>
        </mxCell>
        <mxCell id="rL-jXe1uzckOBX0wjLuj-28" value="New User" style="strokeWidth=1;shadow=0;dashed=0;align=center;html=1;shape=mxgraph.mockup.forms.anchor;fontSize=12;fontColor=#666666;align=left;spacingLeft=0;resizeWidth=1;" vertex="1" parent="1">
          <mxGeometry x="680" y="330" width="150" height="20" as="geometry">
            <mxPoint x="10" y="-70" as="offset" />
          </mxGeometry>
        </mxCell>
        <mxCell id="rL-jXe1uzckOBX0wjLuj-29" value="SIGN UP" style="strokeWidth=1;shadow=0;dashed=0;align=center;html=1;shape=mxgraph.mockup.forms.rrect;rSize=5;strokeColor=none;fontColor=#ffffff;fillColor=#66bbff;fontSize=16;fontStyle=1;" vertex="1" parent="1">
          <mxGeometry x="880" y="320" width="80" height="30" as="geometry">
            <mxPoint x="210" y="-80" as="offset" />
          </mxGeometry>
        </mxCell>
        <mxCell id="rL-jXe1uzckOBX0wjLuj-30" style="edgeStyle=orthogonalEdgeStyle;rounded=0;orthogonalLoop=1;jettySize=auto;html=1;" edge="1" parent="1">
          <mxGeometry relative="1" as="geometry">
            <mxPoint x="840" y="110" as="sourcePoint" />
            <mxPoint x="840" y="130" as="targetPoint" />
          </mxGeometry>
        </mxCell>
      </root>
    </mxGraphModel>
  </diagram>
</mxfile>
